<svg width="24" height="24" viewBox="0 0 24 24" fill="none" xmlns="http://www.w3.org/2000/svg">
<path d="M11.6667 23.3332C18.1099 23.3332 23.3333 18.1099 23.3333 11.6666C23.3333 5.22331 18.1099 0 11.6667 0C5.22337 0 6.10352e-05 5.22331 6.10352e-05 11.6666C6.10352e-05 18.1099 5.22337 23.3332 11.6667 23.3332Z" fill="#4D7BF0"/>
<path d="M13.8071 16.5826C13.6587 16.5833 13.5117 16.5543 13.3747 16.4974C13.2377 16.4406 13.1134 16.3569 13.0092 16.2514L9.99848 13.2406C9.78668 13.0291 9.66756 12.7421 9.6673 12.4428V6.42132C9.6673 6.12189 9.78625 5.83471 9.99798 5.62298C10.2097 5.41125 10.4969 5.2923 10.7963 5.2923C11.0958 5.2923 11.3829 5.41125 11.5947 5.62298C11.8064 5.83471 11.9253 6.12189 11.9253 6.42132V11.9761L14.6049 14.6557C14.8163 14.8674 14.9351 15.1543 14.9351 15.4535C14.9351 15.7527 14.8163 16.0397 14.6049 16.2514C14.5007 16.3569 14.3764 16.4406 14.2394 16.4974C14.1024 16.5543 13.9554 16.5833 13.8071 16.5826Z" fill="white"/>
</svg>
