<svg width="45" height="42" viewBox="0 0 45 42" fill="none" xmlns="http://www.w3.org/2000/svg">
<path d="M29.1777 25.5889C28.8823 25.5906 28.5895 25.534 28.316 25.4223C28.0426 25.3106 27.7938 25.146 27.5841 24.938L22.4443 19.7758L17.3046 24.938C16.8819 25.3606 16.3087 25.5981 15.711 25.5981C15.1133 25.5981 14.5401 25.3606 14.1175 24.938C13.6948 24.5154 13.4574 23.9421 13.4574 23.3444C13.4574 22.7467 13.6948 22.1735 14.1175 21.7509L20.8508 15.0176C21.0594 14.8072 21.3077 14.6402 21.5812 14.5263C21.8547 14.4123 22.1481 14.3537 22.4443 14.3537C22.7406 14.3537 23.034 14.4123 23.3075 14.5263C23.581 14.6402 23.8292 14.8072 24.0379 15.0176L30.7712 21.7509C30.9816 21.9595 31.1486 22.2078 31.2625 22.4813C31.3765 22.7548 31.4351 23.0481 31.4351 23.3444C31.4351 23.6407 31.3765 23.9341 31.2625 24.2076C31.1486 24.4811 30.9816 24.7293 30.7712 24.938C30.5615 25.146 30.3128 25.3106 30.0393 25.4223C29.7659 25.534 29.4731 25.5906 29.1777 25.5889Z" fill="#4D7BF0"/>
<path d="M35.9111 41.3H31.4222C30.8269 41.3 30.256 41.0635 29.8351 40.6426C29.4142 40.2217 29.1777 39.6508 29.1777 39.0555C29.1777 38.4603 29.4142 37.8894 29.8351 37.4685C30.256 37.0475 30.8269 36.8111 31.4222 36.8111H35.9111C37.1016 36.8111 38.2433 36.3381 39.0852 35.4963C39.927 34.6545 40.3999 33.5127 40.3999 32.3222V9.87779C40.3999 8.68726 39.927 7.5455 39.0852 6.70367C38.2433 5.86184 37.1016 5.38891 35.9111 5.38891H8.97776C7.78724 5.38891 6.64547 5.86184 5.80365 6.70367C4.96182 7.5455 4.48888 8.68726 4.48888 9.87779V32.3222C4.48888 33.5127 4.96182 34.6545 5.80365 35.4963C6.64547 36.3381 7.78724 36.8111 8.97776 36.8111H13.4666C14.0619 36.8111 14.6328 37.0475 15.0537 37.4685C15.4746 37.8894 15.7111 38.4603 15.7111 39.0555C15.7111 39.6508 15.4746 40.2217 15.0537 40.6426C14.6328 41.0635 14.0619 41.3 13.4666 41.3H8.97776C6.59671 41.3 4.31318 40.3541 2.62953 38.6704C0.945869 36.9868 0 34.7033 0 32.3222V9.87779C0 7.49674 0.945869 5.21321 2.62953 3.52955C4.31318 1.84589 6.59671 0.900024 8.97776 0.900024H35.9111C38.2921 0.900024 40.5756 1.84589 42.2593 3.52955C43.943 5.21321 44.8888 7.49674 44.8888 9.87779V32.3222C44.8888 34.7033 43.943 36.9868 42.2593 38.6704C40.5756 40.3541 38.2921 41.3 35.9111 41.3Z" fill="#000B22"/>
<path d="M22.4444 41.3C21.8491 41.3 21.2782 41.0635 20.8573 40.6426C20.4364 40.2217 20.2 39.6508 20.2 39.0555V16.6111C20.2 16.0158 20.4364 15.445 20.8573 15.0241C21.2782 14.6031 21.8491 14.3667 22.4444 14.3667C23.0397 14.3667 23.6105 14.6031 24.0315 15.0241C24.4524 15.445 24.6888 16.0158 24.6888 16.6111V39.0555C24.6888 39.6508 24.4524 40.2217 24.0315 40.6426C23.6105 41.0635 23.0397 41.3 22.4444 41.3Z" fill="#4D7BF0"/>
</svg>
