<svg width="48" height="48" viewBox="0 0 48 48" fill="none" xmlns="http://www.w3.org/2000/svg">
<path d="M42.4971 21.9257C41.5509 21.9257 40.7829 21.1577 40.7829 20.2114C40.7829 10.9577 33.2537 3.42857 24 3.42857C14.7463 3.42857 7.21715 10.9577 7.21715 20.2114C7.21715 21.1577 6.44915 21.9257 5.50286 21.9257C4.55657 21.9257 3.78857 21.1577 3.78857 20.2114C3.78857 9.06686 12.8554 0 24 0C35.1446 0 44.2114 9.06686 44.2114 20.2114C44.2114 21.1577 43.4434 21.9257 42.4971 21.9257ZM44.5714 34.2617V30.8331H41.1429V34.2617C41.1429 38.0434 38.0674 41.1189 34.2857 41.1189H29.1429V44.5474H34.2857C39.9583 44.5474 44.5714 39.9343 44.5714 34.2617Z" fill="#000B22"/>
<path d="M5.14286 34.2617C2.30743 34.2617 0 31.9543 0 29.1189V23.976C0 21.1406 2.30743 18.8331 5.14286 18.8331C7.97829 18.8331 10.2857 21.1406 10.2857 23.976V29.1189C10.2857 31.9543 7.97829 34.2617 5.14286 34.2617ZM5.14286 22.2617C4.19829 22.2617 3.42857 23.0314 3.42857 23.976V29.1189C3.42857 30.0634 4.19829 30.8331 5.14286 30.8331C6.08743 30.8331 6.85714 30.0634 6.85714 29.1189V23.976C6.85714 23.0314 6.08743 22.2617 5.14286 22.2617ZM42.8571 34.2617C40.0217 34.2617 37.7143 31.9543 37.7143 29.1189V23.976C37.7143 21.1406 40.0217 18.8331 42.8571 18.8331C45.6926 18.8331 48 21.1406 48 23.976V29.1189C48 31.9543 45.6926 34.2617 42.8571 34.2617ZM42.8571 22.2617C41.9126 22.2617 41.1429 23.0314 41.1429 23.976V29.1189C41.1429 30.0634 41.9126 30.8331 42.8571 30.8331C43.8017 30.8331 44.5714 30.0634 44.5714 29.1189V23.976C44.5714 23.0314 43.8017 22.2617 42.8571 22.2617ZM25.7143 47.976H22.2857C19.4503 47.976 17.1429 45.6686 17.1429 42.8331C17.1429 39.9977 19.4503 37.6903 22.2857 37.6903H25.7143C28.5497 37.6903 30.8571 39.9977 30.8571 42.8331C30.8571 45.6686 28.5497 47.976 25.7143 47.976ZM22.2857 41.1189C21.3411 41.1189 20.5714 41.8886 20.5714 42.8331C20.5714 43.7777 21.3411 44.5474 22.2857 44.5474H25.7143C26.6589 44.5474 27.4286 43.7777 27.4286 42.8331C27.4286 41.8886 26.6589 41.1189 25.7143 41.1189H22.2857Z" fill="#4D7BF0"/>
</svg>
