<svg width="46" height="46" viewBox="0 0 46 46" fill="none" xmlns="http://www.w3.org/2000/svg">
<path fill-rule="evenodd" clip-rule="evenodd" d="M9 0H37C41.9706 0 46 4.02944 46 9V37C46 41.9706 41.9706 46 37 46H9C4.02944 46 0 41.9706 0 37V9C0 4.02944 4.02944 0 9 0ZM9 4C6.23858 4 4 6.23858 4 9V37C4 39.7614 6.23858 42 9 42H37C39.7614 42 42 39.7614 42 37V9C42 6.23858 39.7614 4 37 4H9Z" fill="#000B22"/>
<path d="M23.25 36C22.6662 36 22.1924 35.5262 22.1924 34.9423V19.4295C22.1924 18.8456 22.6662 18.3718 23.25 18.3718C23.8339 18.3718 24.3077 18.8456 24.3077 19.4295V34.9423C24.3077 35.5262 23.8339 36 23.25 36ZM14.4359 25.0705V9.55769C14.4359 8.97385 13.9621 8.5 13.3782 8.5C12.7944 8.5 12.3206 8.97385 12.3206 9.55769V25.0705C12.3206 25.6544 12.7944 26.1282 13.3782 26.1282C13.9621 26.1282 14.4359 25.6544 14.4359 25.0705ZM34.1795 25.0705V9.55769C34.1795 8.97385 33.7057 8.5 33.1218 8.5C32.538 8.5 32.0641 8.97385 32.0641 9.55769V25.0705C32.0641 25.6544 32.538 26.1282 33.1218 26.1282C33.7057 26.1282 34.1795 25.6544 34.1795 25.0705ZM24.3077 13.7885V9.55769C24.3077 8.97385 23.8339 8.5 23.25 8.5C22.6662 8.5 22.1924 8.97385 22.1924 9.55769V13.7885C22.1924 14.3723 22.6662 14.8462 23.25 14.8462C23.8339 14.8462 24.3077 14.3723 24.3077 13.7885ZM34.1795 34.9423V30.7115C34.1795 30.1277 33.7057 29.6538 33.1218 29.6538C32.538 29.6538 32.0641 30.1277 32.0641 30.7115V34.9423C32.0641 35.5262 32.538 36 33.1218 36C33.7057 36 34.1795 35.5262 34.1795 34.9423ZM14.4359 34.9423V30.7115C14.4359 30.1277 13.9621 29.6538 13.3782 29.6538C12.7944 29.6538 12.3206 30.1277 12.3206 30.7115V34.9423C12.3206 35.5262 12.7944 36 13.3782 36C13.9621 36 14.4359 35.5262 14.4359 34.9423Z" fill="#000B22"/>
<path d="M23.25 12.7308C21.1106 12.7308 19.3718 14.4696 19.3718 16.609C19.3718 18.7483 21.1106 20.4872 23.25 20.4872C25.3894 20.4872 27.1282 18.7483 27.1282 16.609C27.1282 14.4696 25.3894 12.7308 23.25 12.7308ZM23.25 18.3718C22.2783 18.3718 21.4872 17.5806 21.4872 16.609C21.4872 15.6373 22.2783 14.8462 23.25 14.8462C24.2217 14.8462 25.0128 15.6373 25.0128 16.609C25.0128 17.5806 24.2217 18.3718 23.25 18.3718ZM33.1218 24.0128C30.9824 24.0128 29.2436 25.7517 29.2436 27.891C29.2436 30.0304 30.9824 31.7692 33.1218 31.7692C35.2612 31.7692 37 30.0304 37 27.891C37 25.7517 35.2612 24.0128 33.1218 24.0128ZM33.1218 29.6538C32.1501 29.6538 31.359 28.8627 31.359 27.891C31.359 26.9194 32.1501 26.1282 33.1218 26.1282C34.0935 26.1282 34.8846 26.9194 34.8846 27.891C34.8846 28.8627 34.0935 29.6538 33.1218 29.6538ZM13.3782 24.0128C11.2388 24.0128 9.5 25.7517 9.5 27.891C9.5 30.0304 11.2388 31.7692 13.3782 31.7692C15.5176 31.7692 17.2564 30.0304 17.2564 27.891C17.2564 25.7517 15.5176 24.0128 13.3782 24.0128ZM13.3782 29.6538C12.4065 29.6538 11.6154 28.8627 11.6154 27.891C11.6154 26.9194 12.4065 26.1282 13.3782 26.1282C14.3499 26.1282 15.141 26.9194 15.141 27.891C15.141 28.8627 14.3499 29.6538 13.3782 29.6538Z" fill="#4D7BF0"/>
</svg>
