<svg width="48" height="53" viewBox="0 0 48 53" fill="none" xmlns="http://www.w3.org/2000/svg">
<path d="M24 52.1943C23.2674 52.1936 22.5471 52.0058 21.9074 51.6486L13.6106 47.0392C9.48651 44.7463 6.05016 41.3929 3.65719 37.326C1.26422 33.2592 0.0015976 28.6268 4.62824e-07 23.9081V11.1185C-0.000493241 10.0538 0.394011 9.02671 1.10716 8.23607C1.82032 7.44543 2.80141 6.94745 3.86058 6.8385C7.16109 6.48863 10.4095 5.75451 13.5397 4.65108C16.4088 3.63733 19.1609 2.31889 21.7489 0.718376C22.4264 0.304534 23.2062 0.0855713 24.0001 0.0855713C24.794 0.0855713 25.5726 0.304534 26.2501 0.718376C28.8386 2.31866 31.591 3.63708 34.4603 4.65108C37.5905 5.75454 40.8389 6.48868 44.1394 6.83857C45.1986 6.94752 46.1796 7.44549 46.8928 8.23612C47.606 9.02674 48.0005 10.0538 48 11.1185V23.9082C47.9984 28.6268 46.7358 33.2593 44.3428 37.3261C41.9498 41.3929 38.5135 44.7464 34.3894 47.0393L26.0925 51.6487C25.4529 52.0058 24.7326 52.1937 24 52.1943ZM23.6911 3.86014C20.8775 5.59807 17.8862 7.03007 14.768 8.13169C11.3669 9.33225 7.83674 10.1302 4.24987 10.5091C4.0974 10.5221 3.95541 10.5921 3.85212 10.705C3.74882 10.8179 3.69177 10.9655 3.69231 11.1185V23.9082C3.69376 27.9683 4.78026 31.9542 6.83934 35.4535C8.89843 38.9527 11.8553 41.838 15.4038 43.8108L23.7007 48.4202C23.7919 48.4722 23.895 48.4996 24 48.4996C24.1049 48.4996 24.2081 48.4722 24.2993 48.4202L32.5962 43.8108C36.1447 41.838 39.1016 38.9527 41.1606 35.4535C43.2197 31.9542 44.3062 27.9683 44.3077 23.9082V11.1185C44.3082 10.9655 44.2511 10.8179 44.1478 10.705C44.0445 10.5921 43.9025 10.5222 43.75 10.5092C40.1631 10.1302 36.633 9.33232 33.2318 8.13176C30.1137 7.03012 27.1223 5.59809 24.3088 3.86014C24.2157 3.80352 24.1088 3.77357 23.9998 3.77357C23.8909 3.77357 23.7842 3.80352 23.6911 3.86014Z" fill="#000B22"/>
<path d="M30.1538 39.0068H17.8461C16.3777 39.0052 14.9699 38.4211 13.9316 37.3828C12.8932 36.3445 12.3092 34.9367 12.3076 33.4683V26.0837C12.3092 24.6153 12.8932 23.2075 13.9316 22.1692C14.9699 21.1309 16.3777 20.5468 17.8461 20.5452H30.1538C31.6222 20.5468 33.03 21.1309 34.0683 22.1692C35.1066 23.2075 35.6906 24.6153 35.6922 26.0837V33.4683C35.6906 34.9367 35.1066 36.3445 34.0683 37.3828C33.03 38.4211 31.6222 39.0052 30.1538 39.0068ZM17.8461 24.2375C17.3566 24.2381 16.8874 24.4328 16.5412 24.7789C16.1951 25.125 16.0005 25.5942 15.9999 26.0837V33.4683C16.0005 33.9578 16.1951 34.427 16.5412 34.7731C16.8874 35.1192 17.3566 35.3139 17.8461 35.3145H30.1538C30.6432 35.3139 31.1125 35.1192 31.4586 34.7731C31.8047 34.427 31.9994 33.9578 31.9999 33.4683V26.0837C31.9994 25.5942 31.8047 25.125 31.4586 24.7789C31.1125 24.4328 30.6432 24.2381 30.1538 24.2375H17.8461Z" fill="#4D7BF0"/>
<path d="M28.923 24.2375H19.0769C18.5873 24.2374 18.1178 24.0429 17.7716 23.6967C17.4254 23.3505 17.2308 22.881 17.2307 22.3914V17.4683C17.2307 15.673 17.9439 13.9512 19.2134 12.6817C20.4829 11.4123 22.2046 10.6991 23.9999 10.6991C25.7953 10.6991 27.517 11.4123 28.7865 12.6817C30.056 13.9512 30.7692 15.673 30.7692 17.4683V22.3914C30.769 22.881 30.5745 23.3505 30.2283 23.6967C29.8821 24.0429 29.4126 24.2374 28.923 24.2375ZM20.923 20.5452H27.0769V17.4683C27.0769 16.6523 26.7527 15.8696 26.1757 15.2926C25.5986 14.7156 24.816 14.3914 23.9999 14.3914C23.1839 14.3914 22.4013 14.7156 21.8242 15.2926C21.2472 15.8696 20.923 16.6523 20.923 17.4683V20.5452Z" fill="#4D7BF0"/>
</svg>
