<svg width="48" height="34" viewBox="0 0 48 34" fill="none" xmlns="http://www.w3.org/2000/svg">
<path d="M37.9722 12.6102C37.8756 11.5651 37.9495 8.72403 40.6712 4.77333C40.8771 4.4752 40.8397 4.07313 40.584 3.81753C39.4744 2.7079 38.7874 2.0077 38.3055 1.51773C37.6719 0.871676 37.3827 0.577301 36.9593 0.193452C36.6766 -0.0606487 36.2489 -0.0650734 35.9632 0.184002C31.2193 4.31193 25.9503 12.8417 26.7127 23.2919C27.1595 29.4281 31.6353 33.882 37.3548 33.882C43.2244 33.882 47.9998 29.1073 47.9998 23.2377C47.9998 17.5753 43.5555 12.9318 37.9722 12.6102ZM37.3548 32.382C32.4432 32.382 28.5972 28.5133 28.2084 23.1835C28.2084 23.1835 28.2084 23.1835 28.2084 23.1828C27.3507 11.4296 34.3372 3.79555 36.4481 1.77408C36.6539 1.97695 36.889 2.21568 37.2354 2.5687C37.6529 2.9935 38.2242 3.57505 39.0885 4.44228C35.7845 9.5326 36.4078 13.1595 36.681 13.6796C36.8106 13.9264 37.0765 14.0927 37.3548 14.0927C42.3975 14.0927 46.4998 18.195 46.4998 23.2377C46.4998 28.2797 42.3975 32.382 37.3548 32.382Z" fill="#B0C3F4"/>
<path d="M11.3348 12.6103C11.2373 11.5681 11.3091 8.72918 14.0337 4.77338C14.2388 4.47526 14.2022 4.07318 13.9466 3.81758C12.8391 2.71013 12.1529 2.01068 11.6717 1.52071C11.036 0.873233 10.7459 0.578034 10.3226 0.193509C10.0398 -0.0605918 9.6121 -0.0642668 9.3265 0.183308C4.5826 4.31123 -0.687201 12.8396 0.073749 23.2919V23.2927C0.522024 29.4281 4.99855 33.882 10.718 33.882C16.5877 33.882 21.3631 29.1074 21.3631 23.2377C21.3631 17.5747 16.9187 12.9304 11.3348 12.6103ZM10.718 32.382C5.8072 32.382 1.95902 28.5134 1.5694 23.1828V23.1836C0.713949 11.4275 7.7005 3.79486 9.8113 1.77413C10.0178 1.97701 10.2537 2.21723 10.6009 2.57101C11.0176 2.99581 11.5882 3.57661 12.451 4.44233C9.14702 9.53341 9.77035 13.1596 10.0435 13.6789C10.1732 13.9257 10.4397 14.0927 10.718 14.0927C15.7608 14.0927 19.8631 18.195 19.8631 23.2377C19.8631 28.2797 15.7608 32.382 10.718 32.382Z" fill="#B0C3F4"/>
</svg>
