<svg width="22" height="23" viewBox="0 0 22 23" fill="none" xmlns="http://www.w3.org/2000/svg">
<path d="M21.2847 3.61379C21.1255 3.42391 20.9301 3.26756 20.71 3.15382C20.4899 3.04008 20.2493 2.97123 20.0023 2.95126C18.435 2.82731 16.8905 2.50044 15.4073 1.97882C14.1638 1.5414 12.9708 0.971779 11.8489 0.279738C11.5555 0.0969136 11.2168 0 10.8711 0C10.5254 0 10.1867 0.0969136 9.89331 0.279738C8.76655 0.969831 7.57023 1.53933 6.32416 1.97882C4.84103 2.50044 3.29645 2.82731 1.72915 2.95126C1.48218 2.97123 1.24163 3.04008 1.02149 3.15382C0.801357 3.26756 0.606017 3.42391 0.446826 3.61379C0.28442 3.79773 0.16169 4.01318 0.0863057 4.24669C0.0109212 4.4802 -0.0154984 4.72674 0.00869747 4.97092L0.521629 11.1795C0.674577 13.0113 1.26488 14.7797 2.24296 16.3361C3.22104 17.8925 4.55833 19.1914 6.1425 20.1238L9.91468 22.3465C10.2035 22.5145 10.5316 22.603 10.8657 22.603C11.1999 22.603 11.528 22.5145 11.8168 22.3465L15.589 20.1238C17.1732 19.1914 18.5104 17.8925 19.4885 16.3361C20.4666 14.7797 21.0569 13.0113 21.2099 11.1795L21.7228 4.97092C21.747 4.72674 21.7206 4.4802 21.6452 4.24669C21.5698 4.01318 21.4471 3.79773 21.2847 3.61379Z" fill="#4D7BF0"/>
<path d="M9.85316 14.2852C9.7266 14.2859 9.6012 14.261 9.48431 14.2122C9.36742 14.1634 9.2614 14.0916 9.17247 14.0011L6.60381 11.4177C6.47573 11.2292 6.41793 11.0013 6.44061 10.7742C6.46329 10.5471 6.56499 10.3353 6.72777 10.1762C6.89055 10.0171 7.10395 9.92095 7.33034 9.90467C7.55674 9.88839 7.78157 9.95304 7.9652 10.0872L9.85316 11.986L14.3098 7.5038C14.4908 7.38575 14.706 7.33225 14.9209 7.35187C15.1358 7.37149 15.3379 7.46309 15.4948 7.612C15.6517 7.7609 15.7544 7.95849 15.7864 8.17309C15.8184 8.38769 15.7778 8.60687 15.6712 8.79551L10.5339 13.9623C10.4482 14.0599 10.3437 14.1389 10.2266 14.1944C10.1096 14.25 9.9825 14.2809 9.85316 14.2852Z" fill="white"/>
</svg>
