<svg width="20" height="20" viewBox="0 0 20 20" fill="none" xmlns="http://www.w3.org/2000/svg">
<path d="M8.76847 9.47234H0.394089C0.17644 9.47234 0 9.30001 0 9.08742V2.69344C0 2.49834 0.149438 2.3341 0.347799 2.31119L8.72218 1.34372C8.95655 1.31664 9.16256 1.49547 9.16256 1.72597V9.08742C9.16256 9.30001 8.98612 9.47234 8.76847 9.47234Z" fill="#4D7BF0"/>
<path d="M10.3448 9.08742V1.53384C10.3448 1.34082 10.4912 1.17765 10.6871 1.15227L19.5541 0.00340584C19.7903 -0.0271932 20 0.15229 20 0.38498V9.08742C20 9.30001 19.8236 9.47234 19.6059 9.47234H10.7389C10.5213 9.47234 10.3448 9.30001 10.3448 9.08742Z" fill="#4D7BF0"/>
<path d="M0 10.8114V17.1209C0 17.3145 0.147133 17.4779 0.343656 17.5027L8.71804 18.5581C8.95376 18.5878 9.16256 18.4085 9.16256 18.1764V10.6355C9.16256 10.4196 8.98092 10.246 8.76 10.2506L0.385616 10.4265C0.171318 10.431 0 10.602 0 10.8114Z" fill="#4D7BF0"/>
<path d="M19.5513 19.9962L10.4872 18.7568C10.2926 18.7302 10.1478 18.5675 10.1478 18.3756V10.6271C10.1478 10.4145 10.3242 10.2422 10.5419 10.2422H19.6059C19.8236 10.2422 20 10.4145 20 10.6271V19.615C20 19.8488 19.7883 20.0286 19.5513 19.9962Z" fill="#4D7BF0"/>
</svg>
